<?xml version="1.0" encoding="UTF-8"?>
<svg id="Background" xmlns="http://www.w3.org/2000/svg" version="1.1" viewBox="0 0 1083.8 202.55">
  <!-- Generator: Adobe Illustrator 30.2.1, SVG Export Plug-In . SVG Version: 2.1.1 Build 1)  -->
  <defs>
    <style>
      .st0 {
        fill: #1e18cf;
      }

      .st1 {
        fill: #fff;
      }

      .st2 {
        fill: #00cfff;
      }
    </style>
  </defs>
  <g>
    <g>
      <path class="st2" d="M149.31,24.31l-3.41-8.7s-1.4-4.07-2.09-5.32c-.32-.59-1.06-1.44-1.7-2.08-3.37-3.37-8.09-4.81-12.3-3.47-2.61.83-5.08,1.99-5.08,1.99,0,0-.01-.01-.03,0l-8.67,3.79c-2.83,1.23-5.74,2.16-8.72,2.79-6.19,1.31-12.58,1.31-18.74,0-2.98-.62-5.91-1.55-8.74-2.79l-8.13-3.54s-4.58-2.24-6.2-2.72c-4.02-1.19-8.54.58-11.74,3.78-.55.55-1.42,1.72-1.78,2.39-.74,1.41-2.05,5.32-2.05,5.32l-3.36,8.56c-1.13,2.88-2.54,5.59-4.2,8.15,2.4-.51,5.07-.16,7.97,1.12l12.94,5.65,10.92,4.76.42.19,13.04,5.66c6.54,2.85,13.97,2.85,20.5,0l13.04-5.69.42-.19,10.92-4.76,12.94-5.65c2.92-1.26,5.59-1.64,7.99-1.1-1.66-2.56-3.06-5.27-4.2-8.15h.04Z"/>
      <path class="st2" d="M174.8,152.73l8.7-3.41,5.32-2.09h.04c.73-.51,1.39-1.06,2.03-1.7,3.37-3.37,4.58-8.06,3.66-12.38,0,0,0-.03,0-.03h0l-2.16-4.97s0,0,0-.03l-3.79-8.67c-1.23-2.83-2.16-5.74-2.79-8.72-1.31-6.19-1.31-12.58,0-18.74.62-2.98,1.55-5.91,2.79-8.74l3.54-8.13,2.72-6.2c.68-4.14-.58-8.54-3.78-11.74-.55-.55-1.15-1.06-1.77-1.48l-5.94-2.34-8.56-3.36c-2.88-1.13-5.59-2.54-8.15-4.2.51,2.4.16,5.07-1.12,7.97l-5.65,12.94-4.76,10.92-.19.42-5.66,13.04c-2.85,6.54-2.85,13.97,0,20.5l5.69,13.04.19.42,4.76,10.92,5.65,12.94c1.26,2.92,1.64,5.59,1.1,7.99,2.56-1.66,5.27-3.06,8.15-4.2v.03Z"/>
      <g>
        <path class="st2" d="M46.36,178.24l3.41,8.7s1.4,4.07,2.09,5.32c.32.59,1.06,1.44,1.7,2.08,3.37,3.37,8.09,4.81,12.3,3.47,2.61-.83,5.08-1.99,5.08-1.99,0,0,.01,0,.03,0l8.67-3.79c2.83-1.23,5.74-2.16,8.72-2.79,6.19-1.31,12.58-1.31,18.74,0,2.98.62,5.91,1.55,8.74,2.79l8.13,3.54s4.58,2.24,6.2,2.72c4.02,1.19,8.54-.58,11.74-3.78.55-.55,1.42-1.72,1.77-2.39.74-1.41,2.05-5.32,2.05-5.32l3.36-8.56c1.13-2.88,2.54-5.59,4.2-8.15-2.4.51-5.07.16-7.97-1.12l-12.94-5.65-10.92-4.76-.42-.19-13.04-5.66c-6.54-2.85-13.97-2.85-20.5,0l-13.04,5.69-.42.19-10.92,4.76-12.94,5.65c-2.92,1.26-5.59,1.64-7.99,1.1,1.66,2.56,3.06,5.27,4.2,8.15h-.03Z"/>
        <path class="st2" d="M20.87,49.82l-8.7,3.41-5.32,2.09h-.04c-.73.51-1.39,1.06-2.03,1.7-3.37,3.37-4.58,8.06-3.66,12.38,0,.01,0,.03,0,.03h0l2.16,4.97s0,.01,0,.03l3.79,8.67c1.23,2.83,2.16,5.74,2.79,8.72,1.31,6.19,1.31,12.58,0,18.74-.62,2.98-1.55,5.91-2.79,8.74l-3.54,8.13-2.72,6.2c-.68,4.14.58,8.54,3.78,11.74.55.55,1.15,1.06,1.77,1.48l5.94,2.34,8.56,3.36c2.88,1.13,5.59,2.54,8.15,4.2-.51-2.4-.16-5.07,1.12-7.97l5.65-12.94,4.76-10.92.19-.42,5.66-13.04c2.85-6.54,2.85-13.97,0-20.5l-5.69-13.04-.19-.42-4.76-10.92-5.65-12.94c-1.26-2.92-1.64-5.59-1.1-7.99-2.56,1.66-5.27,3.06-8.15,4.2v-.03Z"/>
      </g>
    </g>
    <g>
      <path class="st0" d="M79.75,9.67l-8.64-3.77s-3.9-1.9-5.28-2.3c-.65-.19-1.78-.27-2.69-.27-4.81,0-9.2,2.34-11.24,6.3-1.27,2.45-2.2,5.04-2.2,5.04,0,0-.02,0-.02.02l-3.48,8.89c-1.14,2.9-2.55,5.64-4.23,8.21-3.48,5.35-8.04,9.9-13.36,13.36-2.57,1.68-5.32,3.11-8.23,4.25l-8.33,3.27s-4.86,1.67-6.36,2.49C1.97,57.18.01,61.67.01,66.22c0,.79.21,2.24.44,2.97.48,1.54,2.34,5.26,2.34,5.26l3.71,8.5c1.01,2.31,1.81,4.68,2.42,7.09.17.66.97.89,1.43.38,1.33-1.46,3.14-2.66,5.45-3.56l13.26-5.2,11.19-4.39.44-.17,13.34-5.26c6.69-2.63,12-7.94,14.63-14.61l5.24-13.36.17-.44,4.39-11.19,5.2-13.26c.91-2.31,2.1-4.13,3.56-5.46.51-.46.28-1.27-.38-1.43-2.41-.61-4.77-1.41-7.08-2.41h0Z"/>
      <path class="st0" d="M189.53,83.08l3.77-8.64,2.3-5.28.02-.02v-.02c.17-.87.25-1.74.25-2.65,0-4.81-2.49-9.01-6.22-11.44,0-.02-.02-.02-.02-.02h-.02l-5.08-1.99s0-.02-.02-.02l-8.89-3.48c-2.9-1.14-5.64-2.55-8.21-4.23-5.35-3.48-9.9-8.04-13.36-13.36-1.68-2.57-3.11-5.32-4.25-8.23l-3.27-8.33-2.44-6.24c-.03-.08-.07-.15-.12-.22-2.47-3.38-6.48-5.57-10.99-5.57-.79,0-1.57.06-2.32.21l-5.91,2.57-8.5,3.71c-2.31,1.01-4.68,1.81-7.09,2.42-.66.17-.89.97-.38,1.43,1.46,1.33,2.66,3.14,3.56,5.45l5.2,13.26,4.39,11.19.17.44,5.26,13.34c2.63,6.69,7.94,12,14.61,14.63l13.36,5.24.44.17,11.19,4.39,13.26,5.2c2.31.91,4.13,2.1,5.46,3.56.46.51,1.27.28,1.43-.38.61-2.41,1.41-4.77,2.41-7.08h.01Z"/>
      <g>
        <path class="st0" d="M116.11,192.88l8.64,3.77s3.9,1.9,5.28,2.3c.65.19,1.78.27,2.69.27,4.81,0,9.2-2.34,11.24-6.3,1.27-2.45,2.2-5.04,2.2-5.04,0,0,.02,0,.02-.02l3.48-8.89c1.14-2.9,2.55-5.64,4.23-8.21,3.48-5.35,8.04-9.9,13.36-13.36,2.57-1.68,5.32-3.11,8.23-4.25l8.33-3.27s4.86-1.67,6.36-2.49c3.72-2.02,5.68-6.51,5.68-11.06,0-.79-.21-2.24-.44-2.97-.48-1.54-2.34-5.26-2.34-5.26l-3.71-8.5c-1.01-2.31-1.81-4.68-2.42-7.09-.17-.66-.97-.89-1.43-.38-1.33,1.46-3.14,2.66-5.45,3.56l-13.26,5.2-11.19,4.39-.44.17-13.34,5.26c-6.69,2.63-12,7.94-14.63,14.61l-5.24,13.36-.17.44-4.39,11.19-5.2,13.26c-.91,2.31-2.1,4.13-3.56,5.46-.51.46-.28,1.27.38,1.43,2.41.61,4.77,1.41,7.08,2.41h0Z"/>
        <path class="st0" d="M6.34,119.47l-3.77,8.64-2.3,5.28-.02.02v.02C.08,134.3,0,135.17,0,136.08,0,140.89,2.49,145.09,6.22,147.52c0,.02.02.02.02.02h.02l5.08,1.99s0,.02.02.02l8.89,3.48c2.9,1.14,5.64,2.55,8.21,4.23,5.35,3.48,9.9,8.04,13.36,13.36,1.68,2.57,3.11,5.32,4.25,8.23l3.27,8.33,2.44,6.24c.03.08.07.15.12.22,2.47,3.38,6.48,5.57,10.99,5.57.79,0,1.57-.06,2.32-.21l5.91-2.57,8.5-3.71c2.31-1.01,4.68-1.81,7.09-2.42.66-.17.89-.97.38-1.43-1.46-1.33-2.66-3.14-3.56-5.45l-5.2-13.26-4.39-11.19-.17-.44-5.26-13.34c-2.63-6.69-7.94-12-14.61-14.63l-13.36-5.24-.44-.17-11.19-4.39-13.26-5.2c-2.31-.91-4.13-2.1-5.46-3.56-.46-.51-1.27-.28-1.43.38-.61,2.41-1.41,4.77-2.41,7.08h0Z"/>
      </g>
    </g>
  </g>
  <g>
    <path class="st1" d="M241.5,94.59c0-4.22.42-8.34,1.27-12.38.85-4.03,2.12-7.83,3.81-11.41,1.69-3.57,3.8-6.86,6.33-9.86s5.46-5.58,8.82-7.73c3.35-2.15,7.14-3.84,11.36-5.06,4.22-1.22,8.87-1.82,13.95-1.82s9.79.61,14.04,1.82c4.25,1.22,8.07,2.9,11.45,5.06,3.39,2.16,6.34,4.73,8.87,7.73,2.52,3,4.62,6.29,6.3,9.86s2.92,7.37,3.74,11.41c.82,4.03,1.22,8.16,1.22,12.38s-.41,8.33-1.22,12.33c-.82,4-2.06,7.77-3.74,11.31s-3.79,6.8-6.33,9.77c-2.54,2.97-5.5,5.53-8.89,7.67s-7.2,3.8-11.43,4.99c-4.23,1.18-8.9,1.78-14.01,1.78s-9.73-.59-13.95-1.78c-4.22-1.18-8.01-2.85-11.38-4.99s-6.32-4.69-8.84-7.67c-2.52-2.97-4.62-6.23-6.3-9.77-1.68-3.54-2.94-7.31-3.79-11.31-.85-4-1.27-8.11-1.27-12.33h0ZM257.75,94.59c0,2.83.24,5.64.72,8.43s1.22,5.45,2.24,7.99,2.31,4.89,3.88,7.06,3.43,4.05,5.59,5.63c2.15,1.59,4.62,2.83,7.41,3.74,2.79.91,5.92,1.36,9.4,1.36s6.72-.45,9.54-1.36,5.32-2.15,7.5-3.74c2.19-1.59,4.06-3.46,5.61-5.63s2.83-4.53,3.83-7.06c1-2.54,1.74-5.2,2.22-7.99s.72-5.59.72-8.43-.24-5.66-.72-8.47-1.22-5.49-2.22-8.03-2.29-4.9-3.86-7.09c-1.57-2.19-3.44-4.09-5.61-5.7-2.17-1.62-4.67-2.88-7.5-3.79s-6-1.36-9.51-1.36-6.61.45-9.4,1.36-5.26,2.17-7.43,3.79-4.03,3.52-5.59,5.7c-1.55,2.19-2.84,4.55-3.86,7.09-1.02,2.54-1.76,5.22-2.24,8.03s-.72,5.64-.72,8.47h0Z"/>
    <path class="st1" d="M343.64,165.89l.05-92.31h15.51l-.05,6.79c1.51-1.6,3.06-2.93,4.66-3.99s3.24-1.92,4.92-2.56,3.39-1.1,5.13-1.36,3.49-.39,5.24-.39c5.39,0,10.07.93,14.04,2.79s7.26,4.4,9.86,7.62c2.6,3.22,4.53,6.98,5.79,11.29s1.89,8.93,1.89,13.85c0,3.08-.29,6.09-.88,9.03-.58,2.94-1.46,5.73-2.61,8.36s-2.61,5.06-4.36,7.27-3.81,4.13-6.17,5.75c-2.35,1.62-5.03,2.88-8.01,3.79-2.99.91-6.29,1.36-9.93,1.36-1.75,0-3.53-.17-5.31-.51-1.79-.34-3.53-.85-5.22-1.52-1.69-.68-3.31-1.54-4.85-2.59s-2.93-2.28-4.16-3.69l-.05,31.03h-15.52.03ZM394.39,108.17c0-2.83-.29-5.59-.85-8.29-.57-2.69-1.53-5.09-2.89-7.2-1.36-2.11-3.14-3.8-5.36-5.08-2.22-1.28-4.96-1.92-8.22-1.92s-6.26.61-8.61,1.82c-2.36,1.22-4.26,2.84-5.73,4.87s-2.51,4.37-3.14,7.02c-.63,2.65-.93,5.39-.9,8.22,0,2.65.31,5.28.92,7.9.62,2.62,1.62,4.96,3.02,7.04s3.22,3.76,5.47,5.06c2.25,1.3,5,1.94,8.27,1.94s5.99-.62,8.27-1.85,4.14-2.85,5.59-4.85c1.45-2,2.5-4.29,3.16-6.86s.99-5.18.99-7.83h.01Z"/>
    <path class="st1" d="M482.22,117.45c-.86,4.22-2.2,7.88-4.02,10.99-1.82,3.11-4.05,5.69-6.7,7.73-2.65,2.05-5.67,3.57-9.05,4.57-3.39,1-7.07,1.5-11.04,1.5-5.7,0-10.64-.88-14.82-2.63-4.19-1.75-7.66-4.2-10.41-7.34-2.76-3.14-4.8-6.87-6.14-11.2-1.34-4.32-1.98-9.06-1.92-14.2-.03-5.26.75-10.04,2.35-14.31,1.6-4.28,3.86-7.93,6.77-10.97,2.91-3.03,6.39-5.38,10.46-7.04s8.56-2.49,13.48-2.49c3.85,0,7.33.53,10.46,1.59s5.9,2.52,8.33,4.39c2.43,1.86,4.53,4.07,6.28,6.63s3.18,5.33,4.27,8.31c1.09,2.99,1.86,6.13,2.31,9.42s.58,6.62.39,9.97h-49.36c.15,2.28.62,4.41,1.41,6.4s1.91,3.73,3.37,5.22,3.28,2.67,5.45,3.53,4.72,1.29,7.64,1.29c1.85,0,3.58-.19,5.19-.58,1.62-.38,3.08-1.02,4.39-1.89,1.31-.88,2.45-2.05,3.42-3.51s1.75-3.26,2.33-5.38h15.16ZM450.63,85.5c-2.22,0-4.25.35-6.09,1.06-1.85.71-3.49,1.67-4.92,2.89-1.43,1.22-2.62,2.64-3.58,4.27-.95,1.63-1.63,3.37-2.03,5.22h32.92c-.37-1.78-1.04-3.49-2.01-5.13-.97-1.63-2.16-3.06-3.58-4.29-1.42-1.23-3.03-2.21-4.85-2.93s-3.77-1.09-5.86-1.09Z"/>
    <path class="st1" d="M507.29,73.58l.05,6.97c2.25-2.62,4.92-4.66,8.01-6.12,3.09-1.46,6.81-2.19,11.15-2.19,4.86,0,8.9.63,12.12,1.89s5.77,3.01,7.67,5.24c1.89,2.23,3.22,4.89,3.97,7.97s1.12,6.43,1.09,10.07l.18,43.31h-15.33l-.18-44.47c.03-3.32-.92-5.92-2.84-7.78-1.92-1.86-4.7-2.79-8.33-2.79-2.83,0-5.31.46-7.43,1.39-2.12.92-3.9,2.18-5.31,3.76-1.42,1.59-2.47,3.43-3.16,5.54s-1.02,4.35-.99,6.72l.09,37.63h-15.52l-.14-67.14h14.91,0Z"/>
    <path class="st1" d="M636.07,132.23c-1.91,1.75-3.97,3.27-6.19,4.55-2.22,1.28-4.52,2.33-6.9,3.16s-4.82,1.45-7.29,1.87c-2.48.42-4.92.62-7.32.62-4.74,0-9.16-.57-13.25-1.71s-7.83-2.74-11.2-4.8-6.37-4.52-8.98-7.36c-2.62-2.85-4.82-5.98-6.6-9.4-1.79-3.42-3.15-7.06-4.09-10.94-.94-3.88-1.41-7.86-1.41-11.96,0-4.43.42-8.75,1.27-12.95s2.12-8.15,3.81-11.84c1.69-3.69,3.81-7.08,6.35-10.16s5.5-5.73,8.87-7.94,7.16-3.94,11.36-5.17,8.83-1.85,13.88-1.85,9.91.58,14.5,1.73c4.59,1.15,8.7,3.02,12.33,5.61s6.64,5.95,9.03,10.09,3.9,9.18,4.55,15.12h-16.07c-.65-3.42-1.71-6.31-3.19-8.68s-3.29-4.3-5.43-5.8c-2.14-1.49-4.55-2.58-7.23-3.26-2.68-.68-5.53-1.02-8.54-1.02-3.45,0-6.56.46-9.33,1.39-2.77.92-5.24,2.2-7.41,3.83-2.17,1.63-4.04,3.56-5.61,5.8-1.57,2.23-2.86,4.66-3.88,7.27-1.02,2.62-1.77,5.38-2.26,8.29s-.74,5.84-.74,8.8c.03,2.89.33,5.73.9,8.5s1.42,5.4,2.54,7.87c1.12,2.48,2.51,4.75,4.16,6.81,1.65,2.06,3.55,3.85,5.7,5.36s4.56,2.68,7.23,3.51c2.66.83,5.56,1.25,8.7,1.25,4.03,0,7.67-.65,10.92-1.94,3.25-1.29,6.03-3.05,8.33-5.26s4.12-4.82,5.43-7.8c1.31-2.99,2.05-6.19,2.24-9.6h-28.95l-.09-13.99h44.05l.18,50.52h-11.54l-2.82-8.5v-.02Z"/>
    <path class="st1" d="M724.87,117.45c-.86,4.22-2.2,7.88-4.02,10.99-1.82,3.11-4.05,5.69-6.7,7.73-2.65,2.05-5.67,3.57-9.05,4.57-3.39,1-7.07,1.5-11.04,1.5-5.7,0-10.64-.88-14.82-2.63-4.19-1.75-7.66-4.2-10.41-7.34-2.76-3.14-4.8-6.87-6.14-11.2-1.34-4.32-1.98-9.06-1.92-14.2-.03-5.26.75-10.04,2.35-14.31,1.6-4.28,3.86-7.93,6.77-10.97,2.91-3.03,6.39-5.38,10.46-7.04s8.56-2.49,13.48-2.49c3.85,0,7.33.53,10.46,1.59s5.9,2.52,8.33,4.39c2.43,1.86,4.53,4.07,6.28,6.63s3.18,5.33,4.27,8.31c1.09,2.99,1.86,6.13,2.31,9.42s.58,6.62.39,9.97h-49.36c.15,2.28.62,4.41,1.41,6.4s1.91,3.73,3.37,5.22,3.28,2.67,5.45,3.53,4.72,1.29,7.64,1.29c1.85,0,3.58-.19,5.19-.58,1.62-.38,3.08-1.02,4.39-1.89,1.31-.88,2.45-2.05,3.42-3.51s1.75-3.26,2.33-5.38h15.16ZM693.29,85.5c-2.22,0-4.25.35-6.09,1.06-1.85.71-3.49,1.67-4.92,2.89s-2.62,2.64-3.58,4.27c-.95,1.63-1.63,3.37-2.03,5.22h32.92c-.37-1.78-1.04-3.49-2.01-5.13-.97-1.63-2.16-3.06-3.58-4.29-1.42-1.23-3.03-2.21-4.85-2.93-1.82-.72-3.77-1.09-5.86-1.09h0Z"/>
    <path class="st1" d="M749.94,73.58l.05,6.97c2.25-2.62,4.92-4.66,8.01-6.12s6.81-2.19,11.15-2.19c4.86,0,8.9.63,12.12,1.89s5.77,3.01,7.67,5.24c1.89,2.23,3.22,4.89,3.97,7.97s1.12,6.43,1.09,10.07l.18,43.31h-15.33l-.18-44.47c.03-3.32-.92-5.92-2.84-7.78-1.92-1.86-4.7-2.79-8.33-2.79-2.83,0-5.31.46-7.43,1.39-2.12.92-3.9,2.18-5.31,3.76-1.42,1.59-2.47,3.43-3.16,5.54s-1.02,4.35-.99,6.72l.09,37.63h-15.52l-.14-67.14h14.91,0Z"/>
    <path class="st1" d="M868.99,117.45c-.86,4.22-2.2,7.88-4.02,10.99-1.82,3.11-4.05,5.69-6.7,7.73-2.65,2.05-5.67,3.57-9.05,4.57-3.39,1-7.07,1.5-11.04,1.5-5.7,0-10.64-.88-14.82-2.63-4.19-1.75-7.66-4.2-10.41-7.34-2.76-3.14-4.8-6.87-6.14-11.2-1.34-4.32-1.98-9.06-1.92-14.2-.03-5.26.75-10.04,2.35-14.31,1.6-4.28,3.86-7.93,6.77-10.97,2.91-3.03,6.39-5.38,10.46-7.04s8.56-2.49,13.48-2.49c3.85,0,7.33.53,10.46,1.59s5.9,2.52,8.33,4.39c2.43,1.86,4.53,4.07,6.28,6.63s3.18,5.33,4.27,8.31c1.09,2.99,1.86,6.13,2.31,9.42s.58,6.62.39,9.97h-49.36c.15,2.28.62,4.41,1.41,6.4s1.91,3.73,3.37,5.22,3.28,2.67,5.45,3.53,4.72,1.29,7.64,1.29c1.85,0,3.58-.19,5.19-.58,1.62-.38,3.08-1.02,4.39-1.89,1.31-.88,2.45-2.05,3.42-3.51s1.75-3.26,2.33-5.38h15.16ZM837.4,85.5c-2.22,0-4.25.35-6.09,1.06-1.85.71-3.49,1.67-4.92,2.89s-2.62,2.64-3.58,4.27c-.95,1.63-1.63,3.37-2.03,5.22h32.92c-.37-1.78-1.04-3.49-2.01-5.13-.97-1.63-2.16-3.06-3.58-4.29-1.42-1.23-3.03-2.21-4.85-2.93-1.82-.72-3.77-1.09-5.86-1.09h0Z"/>
    <path class="st1" d="M910.73,73.58l.05,14.36h-12.28l-.09,35.37c0,.8.09,1.44.28,1.92.18.48.51.84.97,1.09.46.25,1.07.41,1.82.48.75.08,1.7.12,2.84.12h7.2l.09,13.81h-10.39c-3.23,0-5.99-.23-8.26-.69-2.28-.46-4.15-1.31-5.61-2.54-1.46-1.23-2.54-2.92-3.23-5.08-.69-2.15-1.04-4.93-1.04-8.31l.09-36.16h-10.21l-.05-14.36h10.21l-.05-19.86h15.33l.05,19.86h12.28,0Z"/>
    <path class="st1" d="M922.83,65.45v-17.04h15.52v17.04h-15.52ZM938.34,73.58l.14,67.14h-15.52l-.09-67.14h15.47Z"/>
    <path class="st1" d="M996.92,91.71c-.88-1.52-1.93-2.75-3.16-3.67s-2.63-1.58-4.2-1.96-3.28-.58-5.13-.58c-3.51,0-6.44.62-8.8,1.87s-4.26,2.91-5.7,4.99c-1.45,2.08-2.47,4.47-3.07,7.18-.6,2.71-.9,5.53-.9,8.45,0,2.65.34,5.23,1.02,7.73.68,2.51,1.72,4.73,3.14,6.67,1.42,1.94,3.22,3.49,5.43,4.66,2.2,1.17,4.84,1.75,7.92,1.75,4.74,0,8.33-1.19,10.78-3.58s4.06-6.04,4.83-10.97h15.88c-.83,4.53-2.07,8.54-3.72,12.03-1.65,3.49-3.76,6.42-6.33,8.77s-5.63,4.14-9.17,5.36-7.63,1.82-12.28,1.82c-5.48,0-10.28-.85-14.41-2.56-4.13-1.71-7.57-4.09-10.32-7.13-2.76-3.05-4.83-6.66-6.21-10.85-1.39-4.19-2.08-8.76-2.08-13.71.03-5.02.72-9.71,2.08-14.08,1.35-4.37,3.4-8.17,6.14-11.41,2.74-3.23,6.2-5.78,10.39-7.64s9.11-2.79,14.78-2.79c4,0,7.76.48,11.27,1.43s6.61,2.46,9.3,4.5c2.69,2.05,4.91,4.67,6.65,7.87,1.74,3.2,2.85,7.05,3.35,11.54h-15.52c-.43-2.28-1.08-4.18-1.96-5.7h0Z"/>
    <path class="st1" d="M1037.37,122.69c.91,1.59,2.07,2.85,3.49,3.79s3.02,1.59,4.83,1.96,3.7.55,5.7.55c1.48,0,3-.1,4.57-.3s3-.58,4.29-1.13c1.29-.55,2.36-1.31,3.21-2.26.85-.95,1.29-2.19,1.32-3.69-.03-1.35-.5-2.49-1.41-3.42-.91-.92-2.12-1.71-3.62-2.35-1.51-.65-3.24-1.21-5.19-1.69-1.96-.48-3.96-.95-6.03-1.41-1.97-.4-4.01-.87-6.12-1.41s-4.15-1.18-6.12-1.94c-1.97-.75-3.84-1.64-5.61-2.66-1.77-1.02-3.31-2.22-4.62-3.6-1.31-1.39-2.35-2.99-3.12-4.8-.77-1.82-1.15-3.89-1.15-6.23s.37-4.51,1.11-6.42c.74-1.91,1.75-3.6,3.02-5.08,1.28-1.48,2.79-2.75,4.53-3.83s3.62-1.96,5.63-2.66c2.02-.69,4.11-1.21,6.28-1.55,2.17-.34,4.35-.51,6.53-.51,3.88,0,7.53.39,10.94,1.15,3.42.77,6.44,2.08,9.07,3.93s4.76,4.31,6.4,7.39c1.63,3.08,2.62,6.93,2.96,11.54h-15.52c-.15-2.03-.65-3.73-1.48-5.1-.83-1.37-1.87-2.48-3.12-3.32-1.25-.85-2.63-1.45-4.16-1.8-1.52-.35-3.04-.53-4.55-.53-1.32,0-2.67.1-4.04.3-1.37.2-2.62.54-3.74,1.02-1.12.48-2.03,1.1-2.72,1.87-.69.77-1.04,1.72-1.04,2.86,0,1.08.39,2,1.18,2.77s1.86,1.45,3.23,2.03c1.37.59,2.96,1.11,4.76,1.57s3.7.92,5.7,1.39l4.8,1.11c3.17.77,6.17,1.64,9,2.61s5.3,2.21,7.41,3.72,3.79,3.36,5.03,5.54c1.25,2.19,1.87,4.86,1.87,8.03-.03,2.89-.46,5.45-1.27,7.67s-1.93,4.15-3.35,5.8c-1.42,1.65-3.08,3.02-4.99,4.11s-3.98,1.98-6.21,2.66c-2.23.68-4.56,1.16-6.97,1.45-2.42.29-4.84.44-7.27.44-4.13,0-7.99-.45-11.59-1.34s-6.76-2.34-9.49-4.34c-2.72-2-4.93-4.63-6.6-7.9-1.68-3.26-2.66-7.25-2.93-11.96h15.52c.18,2.4.73,4.39,1.64,5.98h.01Z"/>
  </g>
</svg>